<svg xmlns="http://www.w3.org/2000/svg" width="12.863" height="14.7" viewBox="0 0 12.863 14.7">
  <path id="Icon_awesome-calendar-alt" data-name="Icon awesome-calendar-alt" d="M0,13.322A1.378,1.378,0,0,0,1.378,14.7H11.485a1.378,1.378,0,0,0,1.378-1.378V5.513H0ZM9.188,7.695a.346.346,0,0,1,.345-.345h1.148a.346.346,0,0,1,.345.345V8.843a.346.346,0,0,1-.345.345H9.532a.346.346,0,0,1-.345-.345Zm0,3.675a.346.346,0,0,1,.345-.345h1.148a.346.346,0,0,1,.345.345v1.148a.346.346,0,0,1-.345.345H9.532a.346.346,0,0,1-.345-.345ZM5.513,7.695a.346.346,0,0,1,.345-.345H7.006a.346.346,0,0,1,.345.345V8.843a.346.346,0,0,1-.345.345H5.857a.346.346,0,0,1-.345-.345Zm0,3.675a.346.346,0,0,1,.345-.345H7.006a.346.346,0,0,1,.345.345v1.148a.346.346,0,0,1-.345.345H5.857a.346.346,0,0,1-.345-.345ZM1.838,7.695a.346.346,0,0,1,.345-.345H3.331a.346.346,0,0,1,.345.345V8.843a.346.346,0,0,1-.345.345H2.182a.346.346,0,0,1-.345-.345Zm0,3.675a.346.346,0,0,1,.345-.345H3.331a.346.346,0,0,1,.345.345v1.148a.346.346,0,0,1-.345.345H2.182a.346.346,0,0,1-.345-.345Zm9.647-9.532H10.106V.459A.461.461,0,0,0,9.647,0H8.728a.461.461,0,0,0-.459.459V1.838H4.594V.459A.461.461,0,0,0,4.134,0H3.216a.461.461,0,0,0-.459.459V1.838H1.378A1.378,1.378,0,0,0,0,3.216V4.594H12.863V3.216A1.378,1.378,0,0,0,11.485,1.838Z" fill="currentColor" opacity="0.39"/>
</svg>
