<svg xmlns="http://www.w3.org/2000/svg" width="18" height="15" viewBox="0 0 18 15">
  <g id="Icon_feather-camera" data-name="Icon feather-camera" transform="translate(-0.75 -3.75)">
    <path id="Path_1112" data-name="Path 1112" d="M18,16.5A1.5,1.5,0,0,1,16.5,18H3a1.5,1.5,0,0,1-1.5-1.5V8.25A1.5,1.5,0,0,1,3,6.75H6L7.5,4.5H12l1.5,2.25h3A1.5,1.5,0,0,1,18,8.25Z" fill="currentColor" stroke="#fff" stroke-linecap="round" stroke-linejoin="round" stroke-width="1.5"/>
    <path id="Path_1113" data-name="Path 1113" d="M18,16.5a3,3,0,1,1-3-3A3,3,0,0,1,18,16.5Z" transform="translate(-5.25 -4.5)" fill="currentColor" stroke="#fff" stroke-linecap="round" stroke-linejoin="round" stroke-width="1.5"/>
  </g>
</svg>
