<svg xmlns="http://www.w3.org/2000/svg" width="21.378" height="21.378" viewBox="0 0 21.378 21.378">
  <g id="Icon_ionic-ios-chatbubbles" data-name="Icon ionic-ios-chatbubbles" transform="translate(-3.375 -3.375)" >
    <path id="Path_966" data-name="Path 966" d="M24.349,17.384a1.245,1.245,0,0,1,.17-.627,1.731,1.731,0,0,1,.108-.159,8.327,8.327,0,0,0,1.418-4.64,8.742,8.742,0,0,0-8.926-8.582A8.865,8.865,0,0,0,8.367,10.2a8.258,8.258,0,0,0-.19,1.757,8.717,8.717,0,0,0,8.787,8.69,10.583,10.583,0,0,0,2.426-.4c.581-.159,1.156-.37,1.305-.427a1.359,1.359,0,0,1,.478-.087,1.336,1.336,0,0,1,.519.1l2.914,1.033a.7.7,0,0,0,.2.051.409.409,0,0,0,.411-.411.66.66,0,0,0-.026-.139Z" transform="translate(-1.292 0)" fill="currentColor"/>
    <path id="Path_967" data-name="Path 967" d="M17.276,23.643c-.185.051-.421.108-.678.164a9.485,9.485,0,0,1-1.747.231,8.717,8.717,0,0,1-8.787-8.69,9.716,9.716,0,0,1,.077-1.1c.031-.221.067-.442.118-.658.051-.231.113-.462.18-.689l-.411.365a7.648,7.648,0,0,0-2.652,5.75,7.562,7.562,0,0,0,1.274,4.214c.118.18.185.319.164.411S4.2,26.829,4.2,26.829a.412.412,0,0,0,.139.4.419.419,0,0,0,.262.093.369.369,0,0,0,.149-.031L7.635,26.15a.8.8,0,0,1,.617.01,8.649,8.649,0,0,0,3.119.617,8.071,8.071,0,0,0,6.172-2.832s.164-.226.355-.493C17.707,23.519,17.491,23.586,17.276,23.643Z" transform="translate(0 -2.564)" fill="currentColor"/>
  </g>
</svg>
