<svg xmlns="http://www.w3.org/2000/svg" width="14.809" height="14.809" viewBox="0 0 14.809 14.809">
  <path id="Icon_awesome-check-square" data-name="Icon awesome-check-square" d="M13.222,17.059H1.587A1.587,1.587,0,0,1,0,15.472V3.837A1.587,1.587,0,0,1,1.587,2.25H13.222a1.587,1.587,0,0,1,1.587,1.587V15.472A1.587,1.587,0,0,1,13.222,17.059ZM6.456,13.818l6.082-6.082a.529.529,0,0,0,0-.748l-.748-.748a.529.529,0,0,0-.748,0L6.082,11.2,3.766,8.884a.529.529,0,0,0-.748,0l-.748.748a.529.529,0,0,0,0,.748l3.438,3.438A.529.529,0,0,0,6.456,13.818Z" transform="translate(0 -2.25)" fill="#3ec971"/>
</svg>
