<svg id="google-svgrepo-com" xmlns="http://www.w3.org/2000/svg" width="22.758" height="23.288" viewBox="0 0 22.758 23.288">
  <path id="Path_690" data-name="Path 690" d="M5.147,9.475a6.867,6.867,0,0,1,6.534-4.711A6.731,6.731,0,0,1,15.968,6.3l3.387-3.387A11.635,11.635,0,0,0,1.24,6.453Z" transform="translate(-0.037)" fill="#ea4335"/>
  <path id="Path_691" data-name="Path 691" d="M15.6,17.9a7.176,7.176,0,0,1-3.921,1.046,6.867,6.867,0,0,1-6.524-4.68l-3.92,2.976a11.61,11.61,0,0,0,10.443,6.467,11.091,11.091,0,0,0,7.6-2.911Z" transform="translate(-0.037 -0.423)" fill="#34a853"/>
  <path id="Path_692" data-name="Path 692" d="M19.6,20.668a11.6,11.6,0,0,0,3.513-8.733,9.656,9.656,0,0,0-.265-2.117H12v4.5h6.245a5.248,5.248,0,0,1-2.325,3.453Z" transform="translate(-0.356 -0.291)" fill="#4a90e2"/>
  <path id="Path_693" data-name="Path 693" d="M5.12,14.042a6.962,6.962,0,0,1-.01-4.37L1.2,6.65a11.78,11.78,0,0,0,0,10.368Z" transform="translate(0 -0.197)" fill="#fbbc05"/>
</svg>
