<svg xmlns="http://www.w3.org/2000/svg" width="14.252" height="14.252" viewBox="0 0 14.252 14.252">
  <path id="Icon_material-person-outline" data-name="Icon material-person-outline" d="M13.126,7.692a1.871,1.871,0,1,1-1.871,1.871,1.87,1.87,0,0,1,1.871-1.871m0,8.017c2.646,0,5.434,1.3,5.434,1.871v.98H7.692v-.98c0-.57,2.788-1.871,5.434-1.871m0-9.71a3.563,3.563,0,1,0,3.563,3.563A3.562,3.562,0,0,0,13.126,6Zm0,8.017C10.748,14.017,6,15.211,6,17.58v2.672H20.252V17.58C20.252,15.211,15.5,14.017,13.126,14.017Z" transform="translate(-6 -6)" fill="#79848e"/>
</svg>
