<svg xmlns="http://www.w3.org/2000/svg" width="14.721" height="14.719" viewBox="0 0 14.721 14.719">
  <path id="Icon_ionic-ios-call" data-name="Icon ionic-ios-call" d="M18.785,16.028A12.364,12.364,0,0,0,16.2,14.3c-.774-.372-1.058-.364-1.606.031-.456.33-.751.636-1.276.521a7.612,7.612,0,0,1-2.564-1.9,7.558,7.558,0,0,1-1.9-2.564c-.111-.529.2-.82.521-1.276.395-.548.406-.832.031-1.606A12.12,12.12,0,0,0,7.684,4.926c-.563-.563-.69-.441-1-.33a5.691,5.691,0,0,0-.916.487,2.763,2.763,0,0,0-1.1,1.161c-.218.471-.471,1.349.816,3.641a20.314,20.314,0,0,0,3.572,4.763h0l0,0,0,0h0a20.393,20.393,0,0,0,4.763,3.572c2.292,1.288,3.169,1.035,3.641.816a2.716,2.716,0,0,0,1.161-1.1,5.692,5.692,0,0,0,.487-.916C19.226,16.718,19.353,16.591,18.785,16.028Z" transform="translate(-4.49 -4.502)" fill="#79848e"/>
</svg>
