<svg xmlns="http://www.w3.org/2000/svg" width="17.494" height="17.494" viewBox="0 0 17.494 17.494">
  <g id="Icon_ionic-ios-add-circle-outline" data-name="Icon ionic-ios-add-circle-outline" transform="translate(-3.375 -3.375)">
    <path id="Path_10103" data-name="Path 10103" d="M18.8,14.317H15.663V11.185a.673.673,0,0,0-1.346,0v3.133H11.185a.644.644,0,0,0-.673.673.651.651,0,0,0,.673.673h3.133V18.8a.652.652,0,0,0,.673.673.669.669,0,0,0,.673-.673V15.663H18.8a.673.673,0,0,0,0-1.346Z" transform="translate(-2.868 -2.868)" fill="#2c82d8"/>
    <path id="Path_10104" data-name="Path 10104" d="M12.122,4.552A7.566,7.566,0,1,1,6.769,6.769a7.519,7.519,0,0,1,5.353-2.216m0-1.177a8.747,8.747,0,1,0,8.747,8.747,8.745,8.745,0,0,0-8.747-8.747Z" transform="translate(0 0)" fill="#2c82d8"/>
  </g>
</svg>
