<svg xmlns="http://www.w3.org/2000/svg" width="21.378" height="21.378" viewBox="0 0 21.378 21.378">
  <g id="category-1-svgrepo-com" transform="translate(-2 -2)" >
    <path id="Path_968" data-name="Path 968" d="M9.526,2.533A12.888,12.888,0,0,0,6.69,2.1a12.888,12.888,0,0,0-2.836.432A1.728,1.728,0,0,0,2.436,4.044,33.055,33.055,0,0,0,2,7.823c0,1.188.218,2.7.327,3.779a1.728,1.728,0,0,0,1.418,1.512,12,12,0,0,0,2.836.324,25.313,25.313,0,0,0,2.836-.324A1.728,1.728,0,0,0,10.835,11.6a21.194,21.194,0,0,0,.327-3.779,35.009,35.009,0,0,0-.327-3.779A1.519,1.519,0,0,0,9.526,2.533Z" transform="translate(0 0.007)" fill="currentColor"/>
    <path id="Path_969" data-name="Path 969" d="M20.743,11.617a12,12,0,0,0-2.836-.324,25.335,25.335,0,0,0-2.836.324,1.728,1.728,0,0,0-1.418,1.512,21.193,21.193,0,0,0-.327,3.779c0,1.188.218,2.7.327,3.779A1.728,1.728,0,0,0,15.072,22.2a12.005,12.005,0,0,0,2.836.324,25.336,25.336,0,0,0,2.836-.324,1.728,1.728,0,0,0,1.418-1.512,21.979,21.979,0,0,0,0-7.558A1.728,1.728,0,0,0,20.743,11.617Z" transform="translate(0.78 0.64)" fill="currentColor"/>
    <path id="Path_970" data-name="Path 970" d="M9.635,15.657a12.951,12.951,0,0,0-2.945-.324,24.546,24.546,0,0,0-2.945.324,1.9,1.9,0,0,0-1.418,1.3A7.192,7.192,0,0,0,2,18.9a7.909,7.909,0,0,0,.327,1.943,2.12,2.12,0,0,0,1.418,1.3,12.945,12.945,0,0,0,2.945.324,24.546,24.546,0,0,0,2.945-.324,1.9,1.9,0,0,0,1.418-1.3A7.191,7.191,0,0,0,11.38,18.9a7.909,7.909,0,0,0-.327-1.943A1.734,1.734,0,0,0,9.635,15.657Z" transform="translate(0 0.918)" fill="currentColor"/>
    <path id="Path_971" data-name="Path 971" d="M14.97,8.8a12.95,12.95,0,0,0,2.945.324A24.539,24.539,0,0,0,20.859,8.8a1.9,1.9,0,0,0,1.418-1.3A7.19,7.19,0,0,0,22.6,5.563a7.908,7.908,0,0,0-.327-1.943,2.12,2.12,0,0,0-1.418-1.3A12.95,12.95,0,0,0,17.914,2a24.547,24.547,0,0,0-2.945.324,1.9,1.9,0,0,0-1.418,1.3,7.191,7.191,0,0,0-.327,1.943,7.908,7.908,0,0,0,.327,1.943A1.734,1.734,0,0,0,14.97,8.8Z" transform="translate(0.773 0)" fill="currentColor"/>
  </g>
</svg>
