<svg xmlns="http://www.w3.org/2000/svg" width="18.605" height="21.378" viewBox="0 0 18.605 21.378">
  <g id="gift-box-svgrepo-com" transform="translate(-73.55 -9.991)" >
    <g id="Group_410" data-name="Group 410" transform="translate(73.55 9.991)">
      <path id="Path_959" data-name="Path 959" d="M312.2-500.96a1.4,1.4,0,0,0-.758.835,2.542,2.542,0,0,0,.3,1.916,4.056,4.056,0,0,0,1.944,1.961l.423.212h2.741l.423-.212a4.055,4.055,0,0,0,1.944-1.961c.524-1.086.507-1.9-.039-2.445a.988.988,0,0,0-.891-.34,2.974,2.974,0,0,0-1.314,1.025,13.849,13.849,0,0,0-1.381,2.011c-.089.212-.134.212-.223,0a11.322,11.322,0,0,0-2.083-2.718A1.1,1.1,0,0,0,312.2-500.96Zm.691,1.342a10.157,10.157,0,0,1,1.576,2.2,3.51,3.51,0,0,1,.173.379c0,.072-.189.011-.6-.2a2.376,2.376,0,0,1-.791-.6,2.723,2.723,0,0,1-.813-1.933C312.486-499.974,312.586-499.94,312.893-499.617Zm5.626-.145a1.835,1.835,0,0,1-.262,1.131,3.123,3.123,0,0,1-1.4,1.432,1.838,1.838,0,0,1-.5.178,4.494,4.494,0,0,1,.835-1.537,6.376,6.376,0,0,1,1.22-1.348C318.446-499.907,318.5-499.84,318.519-499.762Z" transform="translate(-306.175 501.009)" fill="currentColor"/>
      <path id="Path_960" data-name="Path 960" d="M73.55-238.844v2.256h8.8V-241.1h-8.8Z" transform="translate(-73.55 246.77)" fill="currentColor"/>
      <path id="Path_961" data-name="Path 961" d="M522.98-238.844v2.256h8.8V-241.1h-8.8Z" transform="translate(-513.176 246.77)" fill="currentColor"/>
      <path id="Path_962" data-name="Path 962" d="M127.18,1.644V6.908h7.631V-3.62H127.18Z" transform="translate(-126.01 14.47)" fill="currentColor"/>
      <path id="Path_963" data-name="Path 963" d="M522.98,1.644V6.908h7.743V-3.62H522.98Z" transform="translate(-513.176 14.47)" fill="currentColor"/>
    </g>
  </g>
</svg>
