<svg xmlns="http://www.w3.org/2000/svg" width="79.042" height="14.313" viewBox="0 0 79.042 14.313">
  <g id="rating-svgrepo-com_1_" data-name="rating-svgrepo-com (1)" transform="translate(-25 -200.73)">
    <g id="Group_1111" data-name="Group 1111" transform="translate(25 201.23)">
      <path id="Path_685" data-name="Path 685" d="M38.953,206.277a.346.346,0,0,0-.276-.233l-4.412-.641-1.974-4a.357.357,0,0,0-.613,0l-1.974,4-4.41.641a.342.342,0,0,0-.19.583l3.192,3.112-.753,4.394a.339.339,0,0,0,.136.334.344.344,0,0,0,.361.026l3.945-2.075,3.947,2.075a.341.341,0,0,0,.495-.36l-.753-4.394,3.192-3.112A.34.34,0,0,0,38.953,206.277Z" transform="translate(-25 -201.23)" fill="#ffc50b"/>
      <path id="Path_686" data-name="Path 686" d="M126.122,206.277a.344.344,0,0,0-.276-.233l-4.41-.641-1.974-4a.357.357,0,0,0-.613,0l-1.974,4-4.41.641a.342.342,0,0,0-.19.583l3.192,3.112-.754,4.394a.342.342,0,0,0,.5.36l3.947-2.075,3.945,2.075a.344.344,0,0,0,.16.039.34.34,0,0,0,.336-.4l-.753-4.394,3.192-3.112A.338.338,0,0,0,126.122,206.277Z" transform="translate(-95.99 -201.23)" fill="#ffc50b"/>
      <path id="Path_687" data-name="Path 687" d="M214.191,206.277a.344.344,0,0,0-.276-.233l-4.41-.641-1.974-4a.357.357,0,0,0-.613,0l-1.974,4-4.41.641a.342.342,0,0,0-.276.233.337.337,0,0,0,.087.35l3.192,3.112-.754,4.394a.342.342,0,0,0,.5.36l3.947-2.075,3.947,2.075a.342.342,0,0,0,.36-.026.341.341,0,0,0,.135-.334l-.753-4.394,3.192-3.112A.34.34,0,0,0,214.191,206.277Z" transform="translate(-167.71 -201.23)" fill="#ffc50b"/>
    </g>
    <g id="Group_1112" data-name="Group 1112" transform="translate(73.385 201.23)">
      <path id="Path_688" data-name="Path 688" d="M299.61,206.277a.34.34,0,0,0-.275-.233l-4.41-.641-1.974-4a.357.357,0,0,0-.613,0l-1.974,4-4.41.641a.343.343,0,0,0-.191.583l3.194,3.112-.754,4.394a.342.342,0,0,0,.5.36l3.947-2.075,3.945,2.075a.343.343,0,0,0,.36-.026.344.344,0,0,0,.136-.334l-.753-4.394,3.192-3.112A.344.344,0,0,0,299.61,206.277Z" transform="translate(-285.659 -201.23)" fill="none" stroke="#c8c8c8" stroke-width="1"/>
      <path id="Path_689" data-name="Path 689" d="M386.774,206.277a.345.345,0,0,0-.276-.233l-4.412-.641-1.974-4a.357.357,0,0,0-.613,0l-1.973,4-4.412.641a.342.342,0,0,0-.189.583l3.192,3.112-.753,4.394a.342.342,0,0,0,.5.36l3.947-2.075,3.947,2.075a.341.341,0,0,0,.494-.36l-.752-4.394,3.191-3.112A.339.339,0,0,0,386.774,206.277Z" transform="translate(-356.641 -201.23)" fill="none" stroke="#c8c8c8" stroke-width="1"/>
    </g>
  </g>
</svg>
