<svg xmlns="http://www.w3.org/2000/svg" width="42.507" height="34.802" viewBox="0 0 42.507 34.802">
  <path id="twitter-svgrepo-com" d="M41.543,50.422a16.124,16.124,0,0,1-2.056.749,9.088,9.088,0,0,0,1.85-3.254.686.686,0,0,0-1-.8,16.178,16.178,0,0,1-4.782,1.89A9.129,9.129,0,0,0,20.04,55.531a9.308,9.308,0,0,0,.075,1.179A23.361,23.361,0,0,1,4.081,48.2a.686.686,0,0,0-1.124.088,9.138,9.138,0,0,0,.936,10.5,7.731,7.731,0,0,1-1.221-.545.686.686,0,0,0-1.018.584c0,.04,0,.081,0,.122A9.157,9.157,0,0,0,6.119,66.8q-.348-.035-.694-.1a.686.686,0,0,0-.781.883A9.122,9.122,0,0,0,11.328,73.7,16.143,16.143,0,0,1,2.7,76.163a16.5,16.5,0,0,1-1.933-.113.686.686,0,0,0-.451,1.258,24.608,24.608,0,0,0,13.307,3.9,23.674,23.674,0,0,0,18.341-8.056A25.534,25.534,0,0,0,38.32,56.51c0-.25,0-.5-.012-.755a17.738,17.738,0,0,0,4.082-4.324.686.686,0,0,0-.847-1.008Z" transform="translate(0 -46.406)" fill="#73a1fb"/>
</svg>
