<svg xmlns="http://www.w3.org/2000/svg" width="20.161" height="20.161" viewBox="0 0 20.161 20.161">
  <path id="Icon_awesome-user-circle" data-name="Icon awesome-user-circle" d="M10.081.562A10.081,10.081,0,1,0,20.161,10.643,10.079,10.079,0,0,0,10.081.562Zm0,3.9A3.577,3.577,0,1,1,6.5,8.042,3.577,3.577,0,0,1,10.081,4.465Zm0,13.983a7.789,7.789,0,0,1-5.955-2.772,4.532,4.532,0,0,1,4-2.431,1,1,0,0,1,.289.045,5.382,5.382,0,0,0,1.663.28,5.361,5.361,0,0,0,1.663-.28,1,1,0,0,1,.289-.045,4.532,4.532,0,0,1,4,2.431A7.789,7.789,0,0,1,10.081,18.448Z" transform="translate(0 -0.563)" fill="#969fb1"/>
</svg>
